<mxfile host="app.diagrams.net" modified="2023-11-24T05:36:13.137Z" agent="Mozilla/5.0 (Windows NT 10.0; Win64; x64) AppleWebKit/537.36 (KHTML, like Gecko) Chrome/119.0.0.0 Safari/537.36" etag="16XeQtnagmu-SF59kFcx" version="22.1.3" type="github">
  <diagram id="C5RBs43oDa-KdzZeNtuy" name="Page-1">
    <mxGraphModel dx="1363" dy="860" grid="1" gridSize="10" guides="1" tooltips="1" connect="1" arrows="1" fold="1" page="1" pageScale="1" pageWidth="827" pageHeight="1169" math="0" shadow="0">
      <root>
        <mxCell id="WIyWlLk6GJQsqaUBKTNV-0" />
        <mxCell id="WIyWlLk6GJQsqaUBKTNV-1" parent="WIyWlLk6GJQsqaUBKTNV-0" />
        <mxCell id="YtBO5nISercoyUqvjYbw-1" value="" style="rounded=0;html=1;jettySize=auto;orthogonalLoop=1;fontSize=11;endArrow=block;endFill=0;endSize=8;strokeWidth=1;shadow=0;labelBackgroundColor=none;edgeStyle=orthogonalEdgeStyle;exitX=0;exitY=0;exitDx=75;exitDy=50;exitPerimeter=0;" edge="1" parent="WIyWlLk6GJQsqaUBKTNV-1" source="YtBO5nISercoyUqvjYbw-14" target="YtBO5nISercoyUqvjYbw-5">
          <mxGeometry relative="1" as="geometry">
            <mxPoint x="540" y="150" as="sourcePoint" />
          </mxGeometry>
        </mxCell>
        <mxCell id="YtBO5nISercoyUqvjYbw-4" value="Assignor" style="edgeStyle=orthogonalEdgeStyle;rounded=0;html=1;jettySize=auto;orthogonalLoop=1;fontSize=11;endArrow=block;endFill=0;endSize=8;strokeWidth=1;shadow=0;labelBackgroundColor=none;entryX=0;entryY=0.75;entryDx=0;entryDy=0;" edge="1" parent="WIyWlLk6GJQsqaUBKTNV-1" source="YtBO5nISercoyUqvjYbw-5" target="YtBO5nISercoyUqvjYbw-16">
          <mxGeometry x="-0.116" y="11" relative="1" as="geometry">
            <mxPoint as="offset" />
            <mxPoint x="680" y="241" as="targetPoint" />
          </mxGeometry>
        </mxCell>
        <mxCell id="YtBO5nISercoyUqvjYbw-5" value="&amp;nbsp;Assignor /&lt;br&gt;Assignee" style="rhombus;whiteSpace=wrap;html=1;shadow=0;fontFamily=Helvetica;fontSize=12;align=center;strokeWidth=1;spacing=6;spacingTop=-4;" vertex="1" parent="WIyWlLk6GJQsqaUBKTNV-1">
          <mxGeometry x="490" y="201" width="100" height="80" as="geometry" />
        </mxCell>
        <mxCell id="YtBO5nISercoyUqvjYbw-12" value="Start" style="ellipse;whiteSpace=wrap;html=1;" vertex="1" parent="WIyWlLk6GJQsqaUBKTNV-1">
          <mxGeometry x="500" y="30" width="80" height="40" as="geometry" />
        </mxCell>
        <mxCell id="YtBO5nISercoyUqvjYbw-13" value="" style="endArrow=classic;html=1;rounded=0;entryX=0;entryY=0;entryDx=75;entryDy=0;exitX=0.5;exitY=1;exitDx=0;exitDy=0;entryPerimeter=0;" edge="1" parent="WIyWlLk6GJQsqaUBKTNV-1" source="YtBO5nISercoyUqvjYbw-12" target="YtBO5nISercoyUqvjYbw-14">
          <mxGeometry width="50" height="50" relative="1" as="geometry">
            <mxPoint x="450" y="190" as="sourcePoint" />
            <mxPoint x="540" y="110" as="targetPoint" />
          </mxGeometry>
        </mxCell>
        <mxCell id="YtBO5nISercoyUqvjYbw-14" value="Taskify current data" style="shape=display;whiteSpace=wrap;html=1;" vertex="1" parent="WIyWlLk6GJQsqaUBKTNV-1">
          <mxGeometry x="465" y="110" width="140" height="50" as="geometry" />
        </mxCell>
        <mxCell id="YtBO5nISercoyUqvjYbw-27" style="edgeStyle=orthogonalEdgeStyle;rounded=0;orthogonalLoop=1;jettySize=auto;html=1;exitX=1;exitY=0.5;exitDx=0;exitDy=0;entryX=0;entryY=0.5;entryDx=0;entryDy=0;" edge="1" parent="WIyWlLk6GJQsqaUBKTNV-1" source="YtBO5nISercoyUqvjYbw-16" target="YtBO5nISercoyUqvjYbw-21">
          <mxGeometry relative="1" as="geometry" />
        </mxCell>
        <mxCell id="YtBO5nISercoyUqvjYbw-29" style="edgeStyle=orthogonalEdgeStyle;rounded=0;orthogonalLoop=1;jettySize=auto;html=1;exitX=0.5;exitY=1;exitDx=0;exitDy=0;entryX=1;entryY=0.5;entryDx=0;entryDy=0;" edge="1" parent="WIyWlLk6GJQsqaUBKTNV-1" source="YtBO5nISercoyUqvjYbw-16" target="YtBO5nISercoyUqvjYbw-28">
          <mxGeometry relative="1" as="geometry">
            <Array as="points">
              <mxPoint x="730" y="430" />
            </Array>
          </mxGeometry>
        </mxCell>
        <mxCell id="YtBO5nISercoyUqvjYbw-16" value="&lt;br&gt;Create Task" style="shape=manualInput;whiteSpace=wrap;html=1;" vertex="1" parent="WIyWlLk6GJQsqaUBKTNV-1">
          <mxGeometry x="690" y="196" width="80" height="60" as="geometry" />
        </mxCell>
        <mxCell id="YtBO5nISercoyUqvjYbw-18" value="" style="rounded=0;html=1;jettySize=auto;orthogonalLoop=1;fontSize=11;endArrow=block;endFill=0;endSize=8;strokeWidth=1;shadow=0;labelBackgroundColor=none;edgeStyle=orthogonalEdgeStyle;exitX=0;exitY=0.5;exitDx=0;exitDy=0;entryX=1;entryY=0.5;entryDx=0;entryDy=0;" edge="1" parent="WIyWlLk6GJQsqaUBKTNV-1" target="YtBO5nISercoyUqvjYbw-17">
          <mxGeometry y="20" relative="1" as="geometry">
            <mxPoint as="offset" />
            <mxPoint x="490" y="240.58" as="sourcePoint" />
            <mxPoint x="414" y="240.58" as="targetPoint" />
          </mxGeometry>
        </mxCell>
        <mxCell id="YtBO5nISercoyUqvjYbw-20" value="Assignee" style="edgeLabel;html=1;align=center;verticalAlign=middle;resizable=0;points=[];" vertex="1" connectable="0" parent="YtBO5nISercoyUqvjYbw-18">
          <mxGeometry x="0.0485" y="-2" relative="1" as="geometry">
            <mxPoint y="-13" as="offset" />
          </mxGeometry>
        </mxCell>
        <mxCell id="YtBO5nISercoyUqvjYbw-17" value="Receive email" style="rounded=1;whiteSpace=wrap;html=1;fontSize=12;glass=0;strokeWidth=1;shadow=0;" vertex="1" parent="WIyWlLk6GJQsqaUBKTNV-1">
          <mxGeometry x="270" y="221" width="120" height="40" as="geometry" />
        </mxCell>
        <mxCell id="YtBO5nISercoyUqvjYbw-21" value="appstack_ops" style="shape=datastore;whiteSpace=wrap;html=1;" vertex="1" parent="WIyWlLk6GJQsqaUBKTNV-1">
          <mxGeometry x="827" y="196" width="93" height="60" as="geometry" />
        </mxCell>
        <mxCell id="YtBO5nISercoyUqvjYbw-22" value="appstack_ops" style="shape=datastore;whiteSpace=wrap;html=1;" vertex="1" parent="WIyWlLk6GJQsqaUBKTNV-1">
          <mxGeometry x="130" y="322" width="90" height="66" as="geometry" />
        </mxCell>
        <mxCell id="YtBO5nISercoyUqvjYbw-26" style="edgeStyle=orthogonalEdgeStyle;rounded=0;orthogonalLoop=1;jettySize=auto;html=1;exitX=0;exitY=0.75;exitDx=0;exitDy=0;entryX=1;entryY=0.5;entryDx=0;entryDy=0;" edge="1" parent="WIyWlLk6GJQsqaUBKTNV-1" source="YtBO5nISercoyUqvjYbw-23" target="YtBO5nISercoyUqvjYbw-22">
          <mxGeometry relative="1" as="geometry" />
        </mxCell>
        <mxCell id="YtBO5nISercoyUqvjYbw-30" style="edgeStyle=orthogonalEdgeStyle;rounded=0;orthogonalLoop=1;jettySize=auto;html=1;exitX=0.5;exitY=1;exitDx=0;exitDy=0;entryX=0;entryY=0.5;entryDx=0;entryDy=0;" edge="1" parent="WIyWlLk6GJQsqaUBKTNV-1" source="YtBO5nISercoyUqvjYbw-23" target="YtBO5nISercoyUqvjYbw-28">
          <mxGeometry relative="1" as="geometry" />
        </mxCell>
        <mxCell id="YtBO5nISercoyUqvjYbw-23" value="&lt;br&gt;Update Task" style="shape=manualInput;whiteSpace=wrap;html=1;" vertex="1" parent="WIyWlLk6GJQsqaUBKTNV-1">
          <mxGeometry x="290" y="310" width="80" height="60" as="geometry" />
        </mxCell>
        <mxCell id="YtBO5nISercoyUqvjYbw-24" style="edgeStyle=orthogonalEdgeStyle;rounded=0;orthogonalLoop=1;jettySize=auto;html=1;entryX=0.497;entryY=0.21;entryDx=0;entryDy=0;entryPerimeter=0;" edge="1" parent="WIyWlLk6GJQsqaUBKTNV-1" source="YtBO5nISercoyUqvjYbw-17" target="YtBO5nISercoyUqvjYbw-23">
          <mxGeometry relative="1" as="geometry" />
        </mxCell>
        <mxCell id="YtBO5nISercoyUqvjYbw-32" style="edgeStyle=orthogonalEdgeStyle;rounded=0;orthogonalLoop=1;jettySize=auto;html=1;exitX=0.5;exitY=1;exitDx=0;exitDy=0;entryX=0.5;entryY=0;entryDx=0;entryDy=0;" edge="1" parent="WIyWlLk6GJQsqaUBKTNV-1" source="YtBO5nISercoyUqvjYbw-28" target="YtBO5nISercoyUqvjYbw-31">
          <mxGeometry relative="1" as="geometry" />
        </mxCell>
        <mxCell id="YtBO5nISercoyUqvjYbw-28" value="Send email to&lt;br&gt;people involved" style="rounded=1;whiteSpace=wrap;html=1;fontSize=12;glass=0;strokeWidth=1;shadow=0;" vertex="1" parent="WIyWlLk6GJQsqaUBKTNV-1">
          <mxGeometry x="475" y="410" width="120" height="40" as="geometry" />
        </mxCell>
        <mxCell id="YtBO5nISercoyUqvjYbw-34" style="edgeStyle=orthogonalEdgeStyle;rounded=0;orthogonalLoop=1;jettySize=auto;html=1;exitX=0.5;exitY=1;exitDx=0;exitDy=0;entryX=0.5;entryY=0;entryDx=0;entryDy=0;" edge="1" parent="WIyWlLk6GJQsqaUBKTNV-1" source="YtBO5nISercoyUqvjYbw-31" target="YtBO5nISercoyUqvjYbw-33">
          <mxGeometry relative="1" as="geometry" />
        </mxCell>
        <mxCell id="YtBO5nISercoyUqvjYbw-31" value="Task Details" style="shape=parallelogram;perimeter=parallelogramPerimeter;whiteSpace=wrap;html=1;fixedSize=1;" vertex="1" parent="WIyWlLk6GJQsqaUBKTNV-1">
          <mxGeometry x="475" y="510" width="120" height="50" as="geometry" />
        </mxCell>
        <mxCell id="YtBO5nISercoyUqvjYbw-36" style="edgeStyle=orthogonalEdgeStyle;rounded=0;orthogonalLoop=1;jettySize=auto;html=1;exitX=0.5;exitY=1;exitDx=0;exitDy=0;entryX=0.5;entryY=0;entryDx=0;entryDy=0;" edge="1" parent="WIyWlLk6GJQsqaUBKTNV-1" source="YtBO5nISercoyUqvjYbw-33" target="YtBO5nISercoyUqvjYbw-35">
          <mxGeometry relative="1" as="geometry" />
        </mxCell>
        <mxCell id="YtBO5nISercoyUqvjYbw-37" value="No" style="edgeLabel;html=1;align=center;verticalAlign=middle;resizable=0;points=[];" vertex="1" connectable="0" parent="YtBO5nISercoyUqvjYbw-36">
          <mxGeometry x="-0.3333" y="1" relative="1" as="geometry">
            <mxPoint x="14" y="10" as="offset" />
          </mxGeometry>
        </mxCell>
        <mxCell id="YtBO5nISercoyUqvjYbw-38" style="edgeStyle=orthogonalEdgeStyle;rounded=0;orthogonalLoop=1;jettySize=auto;html=1;entryX=0.5;entryY=0;entryDx=0;entryDy=0;" edge="1" parent="WIyWlLk6GJQsqaUBKTNV-1" source="YtBO5nISercoyUqvjYbw-33" target="YtBO5nISercoyUqvjYbw-28">
          <mxGeometry relative="1" as="geometry">
            <Array as="points">
              <mxPoint x="615" y="640" />
              <mxPoint x="615" y="390" />
              <mxPoint x="535" y="390" />
            </Array>
          </mxGeometry>
        </mxCell>
        <mxCell id="YtBO5nISercoyUqvjYbw-39" value="Yes" style="edgeLabel;html=1;align=center;verticalAlign=middle;resizable=0;points=[];" vertex="1" connectable="0" parent="YtBO5nISercoyUqvjYbw-38">
          <mxGeometry x="-0.8594" relative="1" as="geometry">
            <mxPoint x="-17" y="-10" as="offset" />
          </mxGeometry>
        </mxCell>
        <mxCell id="YtBO5nISercoyUqvjYbw-33" value="&lt;br&gt;Task Date&lt;br&gt;Due?" style="rhombus;whiteSpace=wrap;html=1;shadow=0;fontFamily=Helvetica;fontSize=12;align=center;strokeWidth=1;spacing=6;spacingTop=-4;" vertex="1" parent="WIyWlLk6GJQsqaUBKTNV-1">
          <mxGeometry x="485" y="600" width="100" height="80" as="geometry" />
        </mxCell>
        <mxCell id="YtBO5nISercoyUqvjYbw-40" style="edgeStyle=orthogonalEdgeStyle;rounded=0;orthogonalLoop=1;jettySize=auto;html=1;entryX=0;entryY=0.5;entryDx=0;entryDy=0;entryPerimeter=0;" edge="1" parent="WIyWlLk6GJQsqaUBKTNV-1" source="YtBO5nISercoyUqvjYbw-35" target="YtBO5nISercoyUqvjYbw-44">
          <mxGeometry relative="1" as="geometry">
            <mxPoint x="660" y="750" as="targetPoint" />
          </mxGeometry>
        </mxCell>
        <mxCell id="YtBO5nISercoyUqvjYbw-43" value="Yes" style="edgeLabel;html=1;align=center;verticalAlign=middle;resizable=0;points=[];" vertex="1" connectable="0" parent="YtBO5nISercoyUqvjYbw-40">
          <mxGeometry x="-0.2848" y="4" relative="1" as="geometry">
            <mxPoint y="-6" as="offset" />
          </mxGeometry>
        </mxCell>
        <mxCell id="YtBO5nISercoyUqvjYbw-41" style="edgeStyle=orthogonalEdgeStyle;rounded=0;orthogonalLoop=1;jettySize=auto;html=1;exitX=0;exitY=0.5;exitDx=0;exitDy=0;entryX=1;entryY=0.5;entryDx=0;entryDy=0;" edge="1" parent="WIyWlLk6GJQsqaUBKTNV-1" source="YtBO5nISercoyUqvjYbw-35" target="YtBO5nISercoyUqvjYbw-23">
          <mxGeometry relative="1" as="geometry" />
        </mxCell>
        <mxCell id="YtBO5nISercoyUqvjYbw-42" value="No" style="edgeLabel;html=1;align=center;verticalAlign=middle;resizable=0;points=[];" vertex="1" connectable="0" parent="YtBO5nISercoyUqvjYbw-41">
          <mxGeometry x="-0.8895" y="1" relative="1" as="geometry">
            <mxPoint y="-11" as="offset" />
          </mxGeometry>
        </mxCell>
        <mxCell id="YtBO5nISercoyUqvjYbw-35" value="Task Completed?" style="rhombus;whiteSpace=wrap;html=1;shadow=0;fontFamily=Helvetica;fontSize=12;align=center;strokeWidth=1;spacing=6;spacingTop=-4;" vertex="1" parent="WIyWlLk6GJQsqaUBKTNV-1">
          <mxGeometry x="485" y="710" width="100" height="80" as="geometry" />
        </mxCell>
        <mxCell id="YtBO5nISercoyUqvjYbw-47" value="" style="edgeStyle=orthogonalEdgeStyle;rounded=0;orthogonalLoop=1;jettySize=auto;html=1;" edge="1" parent="WIyWlLk6GJQsqaUBKTNV-1" source="YtBO5nISercoyUqvjYbw-44" target="YtBO5nISercoyUqvjYbw-46">
          <mxGeometry relative="1" as="geometry" />
        </mxCell>
        <mxCell id="YtBO5nISercoyUqvjYbw-44" value="Tasks Logs" style="shape=display;whiteSpace=wrap;html=1;" vertex="1" parent="WIyWlLk6GJQsqaUBKTNV-1">
          <mxGeometry x="670" y="720" width="120" height="60" as="geometry" />
        </mxCell>
        <mxCell id="YtBO5nISercoyUqvjYbw-46" value="End" style="ellipse;whiteSpace=wrap;html=1;" vertex="1" parent="WIyWlLk6GJQsqaUBKTNV-1">
          <mxGeometry x="690" y="850" width="80" height="50" as="geometry" />
        </mxCell>
      </root>
    </mxGraphModel>
  </diagram>
</mxfile>
